<svg width="66" height="67" viewBox="0 0 66 67" fill="none" xmlns="http://www.w3.org/2000/svg">
<path d="M50.4801 33.2345C50.4801 43.2635 42.4181 51.3936 32.4732 51.3936C22.5284 51.3936 14.4664 43.2635 14.4664 33.2345C14.4664 23.2056 22.5284 15.0755 32.4732 15.0755C42.4181 15.0755 50.4801 23.2056 50.4801 33.2345ZM22.4789 33.2345C22.4789 38.801 26.9535 43.3134 32.4732 43.3134C37.993 43.3134 42.4676 38.801 42.4676 33.2345C42.4676 27.6681 37.993 23.1557 32.4732 23.1557C26.9535 23.1557 22.4789 27.6681 22.4789 33.2345Z" fill="#DF4D76"/>
<path d="M66 39.066C64.6856 46.8584 60.6741 53.9308 54.6764 59.0301C48.6786 64.1295 41.0817 66.9266 33.2317 66.9259C25.3817 66.9252 17.7853 64.1268 11.7884 59.0263C5.79154 53.9259 1.78133 46.8528 0.468286 39.0602C-0.844758 31.2676 0.624132 23.2585 4.61471 16.452C8.60529 9.6455 14.8599 4.48096 22.2705 1.87342C29.681 -0.734117 37.769 -0.616329 45.1016 2.20592C52.4341 5.02817 58.5378 10.3727 62.3312 17.2925L56.1729 20.715C53.1824 15.2597 48.3706 11.0464 42.5899 8.82148C36.8093 6.59656 30.4331 6.5037 24.591 8.55936C18.7489 10.615 13.8181 14.6865 10.6721 20.0524C7.52615 25.4183 6.36815 31.7322 7.40329 37.8755C8.43843 44.0188 11.5999 49.5949 16.3275 53.6158C21.0551 57.6368 27.0438 59.8429 33.2323 59.8435C39.4209 59.844 45.4099 57.6389 50.1382 53.6188C54.8666 49.5988 58.029 44.0232 59.0652 37.8801L66 39.066Z" fill="#DF4D76"/>
<path d="M62.3196 17.3216L47.3584 43.4752L48.8811 25.6207L53.6398 16.9409L62.3196 17.3216Z" fill="#DF4D76"/>
</svg>
